<svg width="20" height="20" viewBox="0 0 20 20" fill="none" xmlns="http://www.w3.org/2000/svg">
<path d="M15.0001 1.66663H5.00008C4.77907 1.66663 4.56711 1.75442 4.41083 1.9107C4.25455 2.06698 4.16675 2.27895 4.16675 2.49996V17.5C4.16674 17.6593 4.21239 17.8152 4.29829 17.9494C4.3842 18.0835 4.50676 18.1903 4.65145 18.2569C4.79614 18.3236 4.9569 18.3473 5.11469 18.3254C5.27248 18.3035 5.42069 18.2368 5.54175 18.1333L10.0001 14.3916L14.4084 18.0916C14.4863 18.1689 14.5786 18.23 14.6802 18.2714C14.7817 18.3129 14.8904 18.3339 15.0001 18.3333C15.1094 18.3361 15.2178 18.3133 15.3167 18.2666C15.4689 18.2041 15.5992 18.0979 15.6911 17.9615C15.7831 17.8251 15.8326 17.6645 15.8334 17.5V2.49996C15.8334 2.27895 15.7456 2.06698 15.5893 1.9107C15.4331 1.75442 15.2211 1.66663 15.0001 1.66663ZM14.1667 15.7166L10.5334 12.6666C10.3837 12.5419 10.195 12.4736 10.0001 12.4736C9.8052 12.4736 9.61649 12.5419 9.46675 12.6666L5.83341 15.7166V3.33329H14.1667V15.7166Z" fill="#C6C6C6"/>
</svg>
